<?xml version="1.0" encoding="utf-8"?>
<!-- Generator: Adobe Illustrator 18.1.1, SVG Export Plug-In . SVG Version: 6.00 Build 0)  -->
<svg version="1.1" id="Layer_1" xmlns="http://www.w3.org/2000/svg" xmlns:xlink="http://www.w3.org/1999/xlink" x="0px" y="0px"
	 viewBox="0 0 130.3 40.9" enable-background="new 0 0 130.3 40.9" xml:space="preserve">
<path fill="#ED6F41" d="M79,6.8c1.9,0,3.4-1.5,3.4-3.4S80.9,0,79,0s-3.4,1.5-3.4,3.4S77.1,6.8,79,6.8"/>
<path fill="#B2D0E1" d="M116.3,9.1c-0.1,0.3-0.5,0.5-0.8,0.4l-4.8-1.7c-0.3-0.1-0.5-0.5-0.4-0.8l1.7-4.8c0.1-0.3,0.5-0.5,0.8-0.4
	l4.8,1.7c0.3,0.1,0.5,0.5,0.4,0.8L116.3,9.1"/>
<path fill="#72AAC9" d="M125.2,17.5c-0.1,0.3-0.5,0.5-0.8,0.4l-4.8-1.7c-0.3-0.1-0.5-0.5-0.4-0.8l1.7-4.8c0.1-0.3,0.5-0.5,0.8-0.4
	l4.8,1.7c0.3,0.1,0.5,0.5,0.4,0.8L125.2,17.5"/>
<path fill="#72AAC9" d="M115.6,22c-0.1,0.3-0.5,0.5-0.8,0.4l-4.8-1.7c-0.3-0.1-0.5-0.5-0.4-0.8l1.7-4.8c0.1-0.3,0.5-0.5,0.8-0.4
	l4.8,1.7c0.3,0.1,0.5,0.5,0.4,0.8L115.6,22"/>
<path fill="#3383B1" d="M124.5,29.2c-0.1,0.3-0.5,0.5-0.8,0.4l-4.8-1.7c-0.3-0.1-0.5-0.5-0.4-0.8l1.7-4.8c0.1-0.3,0.5-0.5,0.8-0.4
	l4.8,1.7c0.3,0.1,0.5,0.5,0.4,0.8L124.5,29.2"/>
<path fill="#00649E" d="M122.1,36.2c-0.1,0.3-0.5,0.5-0.8,0.4l-4.8-1.7c-0.3-0.1-0.5-0.5-0.4-0.8l1.7-4.8c0.1-0.3,0.5-0.5,0.8-0.4
	l4.8,1.7c0.3,0.1,0.5,0.5,0.4,0.8L122.1,36.2"/>
<path fill="#3383B1" d="M115,33.7c-0.1,0.3-0.5,0.5-0.8,0.4l-4.8-1.7c-0.3-0.1-0.5-0.5-0.4-0.8l1.7-4.8c0.1-0.3,0.5-0.5,0.8-0.4
	l4.8,1.7c0.3,0.1,0.5,0.5,0.4,0.8L115,33.7"/>
<polyline fill="#174478" points="127.2,36.6 126.4,36.6 126.4,38.6 125.8,38.6 125.8,36.6 125,36.6 125,36.1 127.2,36.1 127.2,36.6 
	"/>
<polyline fill="#174478" points="130.3,38.6 129.7,38.6 129.7,36.9 129.2,38 128.7,38 128.3,36.9 128.3,38.6 127.6,38.6 127.6,36.1 
	128.4,36.1 129,37.4 129.6,36.1 130.3,36.1 130.3,38.6 "/>
<path fill="#174478" d="M102,11.9c-1.8-2-4.3-2.9-7.5-2.9l0,0c-3,0-5.5,1-7.4,3.1c-1.9,2-2.8,4.7-2.8,7.9c0,3.4,0.9,6.1,2.7,8.1
	c1.8,2,4.3,3,7.5,3.1l0,0c3.2,0,5.6-1,7.4-3s2.7-4.7,2.7-8.1C104.7,16.6,103.8,13.9,102,11.9 M98.2,25.2c-0.9,1.2-2.1,1.8-3.7,1.8
	l0,0c-3.4,0-5-2.3-5-7c0-2.2,0.4-3.8,1.4-5.1c0.9-1.2,2.1-1.8,3.6-1.8l0,0c3.4,0,5,2.3,5,6.9C99.5,22.3,99.1,24,98.2,25.2"/>
<path fill="#174478" d="M82.2,8.9h-7.7l0,0c-0.8,0-1.4,1-1.4,2.1c0,1.2,0.6,2.1,1.4,2.1l0,0h2.7v16.3l0,0l0,0l0,0
	c0,0.8,1.1,1.5,2.5,1.5s2.5-0.7,2.5-1.5l0,0V8.9"/>
<path fill="#174478" d="M63.7,9.1H45c-3.7,0.1-7.1,2-7.1,6c0,3.4,1.9,5,4.4,6.2c1.7,0.9,3.3,1.1,4,2.4c0.6,1.3,0.2,3.2-2.1,3.3h-6.3
	c-1.8,0-2.7-0.5-2.7-2.5v-4.8c0-4.1-0.7-6.9-2.2-8.4c-1.4-1.4-3.6-2.2-6.5-2.3l0,0h-3.7c-0.8,0-1.4,0.9-1.4,2.1s0.6,2.1,1.4,2.1h2.7
	c0.3,0,0.6,0,0.9,0l0,0c2.6,0.2,3.8,1.5,3.8,3.7c-0.8-0.2-1.5-0.3-2.1-0.3s-1.2,0-1.8,0.1c-2.5,0.2-4.5,0.9-6.1,2
	c-1.8,1.4-2.8,3.3-2.8,5.8c0,0.4,0,0.8,0.1,1.2c-1.2,1.2-2.4,1.3-5.9,1.3c-4.2,0-6.4-2.2-6.4-6.7c0-2.2,0.6-3.9,1.6-5.2
	c1.1-1.3,2.6-1.9,4.1-1.8h5.9l0,0l0,0l0,0l0,0c0.7,0,1.3-1,1.3-2.1s-0.6-2.1-1.3-2.1l0,0h-0.1h-5.6c-3.1,0-6,1.1-8,3.2
	C1,14.3,0,17,0,20.4s1,6.1,2.9,8s4.5,2.8,7.8,2.9c4.4,0.1,6.1-0.2,8.6-1.8l0.1,0.1c1.3,1.2,3.1,1.7,5.4,1.7c0.4,0,1,0,1.5-0.1
	c0.9-0.1,1.9-0.3,2.6-0.6c1.1-0.5,2.2-1.2,2.7-1.9c0.6,1,1.8,2.6,4.5,2.6h8.3c1.8-0.2,3.3-0.7,4.4-1.4c1.6-1,2.7-3,2.7-5
	c0-3.4-2-4.7-4.5-5.9c-1.7-0.9-3.1-1.2-4-2.4c-0.9-1.2-0.3-3.1,1.9-3.1h8.7v25.8l0,0c0,0.9,1.1,1.6,2.5,1.6s2.5-0.7,2.5-1.6l0,0l0,0
	v-8.9c1.3,0.6,2.7,0.9,4.3,0.9h0.5c2.9-0.1,5.3-1,7.1-2.8c1.9-1.9,2.8-4.6,2.8-8C73.6,12.8,70.4,9.1,63.7,9.1 M30.3,22.7
	c0,2.8-1.3,4.2-3.9,4.4c-0.2,0-0.4,0-0.6,0c-2.2,0-3.3-0.9-3.3-2.8c0-2.1,1.3-3.4,3.9-3.7c0.6-0.1,1.3-0.1,2-0.1
	c0.4,0,1,0.1,1.9,0.3C30.3,20.8,30.3,22.7,30.3,22.7z M66.9,25.3c-0.7,0.8-1.8,1.3-3.2,1.5c-0.5,0.1-1,0.1-1.6,0.1
	c-1.2,0-2.2-0.4-3.1-1.1V13.3h3.1c0.6,0,1.1,0,1.6,0.1c1.5,0.2,2.5,0.7,3.3,1.5c1,1,1.5,2.8,1.5,5.3C68.4,22.5,67.9,24.2,66.9,25.3"
	/>
</svg>
